<svg xmlns="http://www.w3.org/2000/svg" xmlns:xlink="http://www.w3.org/1999/xlink" width="1600" zoomAndPan="magnify" viewBox="0 0 1200 449.999984" height="600" preserveAspectRatio="xMidYMid meet" version="1.0">
<defs>
<g/>
<clipPath id="id1"><path d="M 37.25 65.988281 L 174.148438 65.988281 L 174.148438 102.101562 L 37.25 102.101562 Z M 37.25 65.988281 " clip-rule="nonzero"/></clipPath>
<clipPath id="id2">
<path d="M 16.941406 126.171875 L 194.152344 126.171875 L 194.152344 162.285156 L 16.941406 162.285156 Z M 16.941406 126.171875 " clip-rule="nonzero"/></clipPath>
<clipPath id="id3">
<path d="M 37.25 186.351562 L 174.148438 186.351562 L 174.148438 222.46875 L 37.25 222.46875 Z M 37.25 186.351562 " clip-rule="nonzero"/></clipPath></defs>
<g fill="#ffffff" fill-opacity="1">
<g transform="translate(240.590729, 222.010059)">
<g><path d="M 49.953125 -24.703125 C 50.960938 -24.378906 51.96875 -24.171875 52.96875 -24.078125 C 53.976562 -23.984375 54.984375 -23.9375 55.984375 -23.9375 C 58.503906 -23.9375 60.925781 -24.28125 63.25 -24.96875 C 65.570312 -25.664062 67.753906 -26.65625 69.796875 -27.9375 C 71.835938 -29.226562 73.660156 -30.800781 75.265625 -32.65625 C 76.867188 -34.507812 78.171875 -36.566406 79.171875 -38.828125 L 98.03125 -19.890625 C 95.644531 -16.492188 92.894531 -13.441406 89.78125 -10.734375 C 86.675781 -8.035156 83.316406 -5.742188 79.703125 -3.859375 C 76.085938 -1.972656 72.285156 -0.546875 68.296875 0.421875 C 64.304688 1.398438 60.203125 1.890625 55.984375 1.890625 C 48.890625 1.890625 42.210938 0.570312 35.953125 -2.0625 C 29.703125 -4.707031 24.234375 -8.382812 19.546875 -13.09375 C 14.867188 -17.8125 11.179688 -23.421875 8.484375 -29.921875 C 5.785156 -36.429688 4.4375 -43.582031 4.4375 -51.375 C 4.4375 -59.351562 5.785156 -66.640625 8.484375 -73.234375 C 11.179688 -79.835938 14.867188 -85.460938 19.546875 -90.109375 C 24.234375 -94.765625 29.703125 -98.378906 35.953125 -100.953125 C 42.210938 -103.523438 48.890625 -104.8125 55.984375 -104.8125 C 60.203125 -104.8125 64.320312 -104.304688 68.34375 -103.296875 C 72.363281 -102.296875 76.179688 -100.851562 79.796875 -98.96875 C 83.410156 -97.082031 86.785156 -94.773438 89.921875 -92.046875 C 93.066406 -89.316406 95.832031 -86.253906 98.21875 -82.859375 Z M 63.15625 -77.765625 C 61.957031 -78.203125 60.773438 -78.484375 59.609375 -78.609375 C 58.453125 -78.734375 57.242188 -78.796875 55.984375 -78.796875 C 52.472656 -78.796875 49.160156 -78.148438 46.046875 -76.859375 C 42.929688 -75.578125 40.226562 -73.742188 37.9375 -71.359375 C 35.644531 -68.972656 33.835938 -66.097656 32.515625 -62.734375 C 31.203125 -59.367188 30.546875 -55.582031 30.546875 -51.375 C 30.546875 -50.425781 30.59375 -49.351562 30.6875 -48.15625 C 30.78125 -46.96875 30.9375 -45.757812 31.15625 -44.53125 C 31.375 -43.3125 31.640625 -42.132812 31.953125 -41 C 32.265625 -39.875 32.675781 -38.867188 33.1875 -37.984375 Z M 55.65625 -112.828125 L 45 -126.875 L 73 -152.984375 L 88.453125 -133.28125 Z M 55.65625 -112.828125 "/>
</g>
</g>
</g>
<g fill="#ffffff" fill-opacity="1">
<g transform="translate(365.282351, 222.010059)"><g>
<path d="M 107.546875 38.453125 L 81.625 38.453125 L 81.625 -6.78125 C 79.675781 -5.65625 77.679688 -4.554688 75.640625 -3.484375 C 73.597656 -2.421875 71.492188 -1.460938 69.328125 -0.609375 C 67.160156 0.234375 64.960938 0.90625 62.734375 1.40625 C 60.503906 1.914062 58.253906 2.171875 55.984375 2.171875 C 48.890625 2.171875 42.210938 0.867188 35.953125 -1.734375 C 29.703125 -4.347656 24.234375 -8.007812 19.546875 -12.71875 C 14.867188 -17.4375 11.179688 -23.078125 8.484375 -29.640625 C 5.785156 -36.210938 4.4375 -43.457031 4.4375 -51.375 C 4.4375 -59.351562 5.785156 -66.625 8.484375 -73.1875 C 11.179688 -79.757812 14.867188 -85.367188 19.546875 -90.015625 C 24.234375 -94.671875 29.703125 -98.269531 35.953125 -100.8125 C 42.210938 -103.351562 48.890625 -104.625 55.984375 -104.625 C 59.253906 -104.625 62.472656 -104.210938 65.640625 -103.390625 C 68.816406 -102.578125 71.914062 -101.460938 74.9375 -100.046875 C 77.957031 -98.640625 80.832031 -96.960938 83.5625 -95.015625 C 86.289062 -93.066406 88.882812 -90.992188 91.34375 -88.796875 L 101.328125 -100.765625 L 107.546875 -100.765625 Z M 81.625 -51.375 C 81.625 -54.894531 80.945312 -58.300781 79.59375 -61.59375 C 78.25 -64.894531 76.414062 -67.816406 74.09375 -70.359375 C 71.769531 -72.910156 69.050781 -74.953125 65.9375 -76.484375 C 62.820312 -78.023438 59.503906 -78.796875 55.984375 -78.796875 C 52.472656 -78.796875 49.160156 -78.148438 46.046875 -76.859375 C 42.929688 -75.578125 40.226562 -73.742188 37.9375 -71.359375 C 35.644531 -68.972656 33.835938 -66.097656 32.515625 -62.734375 C 31.203125 -59.367188 30.546875 -55.582031 30.546875 -51.375 C 30.546875 -47.039062 31.203125 -43.160156 32.515625 -39.734375 C 33.835938 -36.304688 35.644531 -33.429688 37.9375 -31.109375 C 40.226562 -28.785156 42.929688 -27.007812 46.046875 -25.78125 C 49.160156 -24.550781 52.472656 -23.9375 55.984375 -23.9375 C 59.503906 -23.9375 62.820312 -24.707031 65.9375 -26.25 C 69.050781 -27.789062 71.769531 -29.832031 74.09375 -32.375 C 76.414062 -34.925781 78.25 -37.847656 79.59375 -41.140625 C 80.945312 -44.441406 81.625 -47.851562 81.625 -51.375 Z M 81.625 -51.375 "/>
</g>
</g>
</g>
<g fill="#ffffff" fill-opacity="1">
<g transform="translate(505.99863, 222.010059)">
<g>
<path d="M 83.984375 -11.78125 C 81.910156 -9.894531 79.695312 -8.117188 77.34375 -6.453125 C 74.988281 -4.785156 72.519531 -3.335938 69.9375 -2.109375 C 67.363281 -0.890625 64.707031 0.078125 61.96875 0.796875 C 59.238281 1.523438 56.460938 1.890625 53.640625 1.890625 C 47.410156 1.890625 41.5625 0.789062 36.09375 -1.40625 C 30.632812 -3.613281 25.84375 -6.742188 21.71875 -10.796875 C 17.601562 -14.847656 14.367188 -19.78125 12.015625 -25.59375 C 9.660156 -31.40625 8.484375 -37.925781 8.484375 -45.15625 L 8.484375 -100.953125 L 34.125 -100.953125 L 34.125 -45.15625 C 34.125 -41.757812 34.640625 -38.722656 35.671875 -36.046875 C 36.710938 -33.378906 38.113281 -31.132812 39.875 -29.3125 C 41.632812 -27.488281 43.691406 -26.101562 46.046875 -25.15625 C 48.398438 -24.21875 50.929688 -23.75 53.640625 -23.75 C 56.273438 -23.75 58.769531 -24.363281 61.125 -25.59375 C 63.476562 -26.820312 65.535156 -28.441406 67.296875 -30.453125 C 69.054688 -32.460938 70.4375 -34.738281 71.4375 -37.28125 C 72.445312 -39.820312 72.953125 -42.445312 72.953125 -45.15625 L 72.953125 -100.953125 L 98.6875 -100.953125 L 98.6875 0 L 92.46875 0 Z M 83.984375 -11.78125 "/>
</g>
</g>
</g>
<g fill="#ffffff" fill-opacity="1">
<g transform="translate(637.854214, 222.010059)">
<g>
<path d="M 40.15625 -128.390625 C 40.15625 -125.992188 39.695312 -123.757812 38.78125 -121.6875 C 37.875 -119.613281 36.632812 -117.804688 35.0625 -116.265625 C 33.488281 -114.734375 31.648438 -113.507812 29.546875 -112.59375 C 27.441406 -111.6875 25.195312 -111.234375 22.8125 -111.234375 C 20.425781 -111.234375 18.175781 -111.6875 16.0625 -112.59375 C 13.957031 -113.507812 12.132812 -114.734375 10.59375 -116.265625 C 9.0625 -117.804688 7.835938 -119.613281 6.921875 -121.6875 C 6.015625 -123.757812 5.5625 -125.992188 5.5625 -128.390625 C 5.5625 -130.710938 6.015625 -132.925781 6.921875 -135.03125 C 7.835938 -137.132812 9.0625 -138.957031 10.59375 -140.5 C 12.132812 -142.039062 13.957031 -143.265625 16.0625 -144.171875 C 18.175781 -145.085938 20.425781 -145.546875 22.8125 -145.546875 C 25.195312 -145.546875 27.441406 -145.085938 29.546875 -144.171875 C 31.648438 -143.265625 33.488281 -142.039062 35.0625 -140.5 C 36.632812 -138.957031 37.875 -137.132812 38.78125 -135.03125 C 39.695312 -132.925781 40.15625 -130.710938 40.15625 -128.390625 Z M 35.71875 0 L 9.796875 0 L 9.796875 -100.953125 L 35.71875 -100.953125 Z M 35.71875 0 "/>
</g>
</g>
</g>
<g fill="#ffffff" fill-opacity="1">
<g transform="translate(706.742332, 222.010059)">
<g>
<path d="M 35.71875 0 L 9.796875 0 L 9.796875 -141.109375 L 35.71875 -141.109375 Z M 35.71875 0 "/>
</g>
</g>
</g>
<g fill="#ffffff" fill-opacity="1">
<g transform="translate(775.630449, 222.010059)">
<g>
<path d="M 40.15625 -128.390625 C 40.15625 -125.992188 39.695312 -123.757812 38.78125 -121.6875 C 37.875 -119.613281 36.632812 -117.804688 35.0625 -116.265625 C 33.488281 -114.734375 31.648438 -113.507812 29.546875 -112.59375 C 27.441406 -111.6875 25.195312 -111.234375 22.8125 -111.234375 C 20.425781 -111.234375 18.175781 -111.6875 16.0625 -112.59375 C 13.957031 -113.507812 12.132812 -114.734375 10.59375 -116.265625 C 9.0625 -117.804688 7.835938 -119.613281 6.921875 -121.6875 C 6.015625 -123.757812 5.5625 -125.992188 5.5625 -128.390625 C 5.5625 -130.710938 6.015625 -132.925781 6.921875 -135.03125 C 7.835938 -137.132812 9.0625 -138.957031 10.59375 -140.5 C 12.132812 -142.039062 13.957031 -143.265625 16.0625 -144.171875 C 18.175781 -145.085938 20.425781 -145.546875 22.8125 -145.546875 C 25.195312 -145.546875 27.441406 -145.085938 29.546875 -144.171875 C 31.648438 -143.265625 33.488281 -142.039062 35.0625 -140.5 C 36.632812 -138.957031 37.875 -137.132812 38.78125 -135.03125 C 39.695312 -132.925781 40.15625 -130.710938 40.15625 -128.390625 Z M 35.71875 0 L 9.796875 0 L 9.796875 -100.953125 L 35.71875 -100.953125 Z M 35.71875 0 "/>
</g>
</g>
</g>
<g fill="#ffffff" fill-opacity="1">
<g transform="translate(844.518566, 222.010059)">
<g>
<path d="M 110.84375 -51.375 C 110.84375 -43.457031 109.492188 -36.226562 106.796875 -29.6875 C 104.097656 -23.15625 100.421875 -17.546875 95.765625 -12.859375 C 91.117188 -8.179688 85.664062 -4.550781 79.40625 -1.96875 C 73.15625 0.601562 66.453125 1.890625 59.296875 1.890625 C 52.191406 1.890625 45.507812 0.570312 39.25 -2.0625 C 33 -4.707031 27.53125 -8.382812 22.84375 -13.09375 C 18.164062 -17.8125 14.476562 -23.421875 11.78125 -29.921875 C 9.082031 -36.429688 7.734375 -43.582031 7.734375 -51.375 L 7.734375 -141.109375 L 33.5625 -141.109375 L 33.5625 -93.984375 C 34.9375 -95.742188 36.613281 -97.3125 38.59375 -98.6875 C 40.570312 -100.070312 42.707031 -101.203125 45 -102.078125 C 47.300781 -102.960938 49.675781 -103.640625 52.125 -104.109375 C 54.570312 -104.578125 56.960938 -104.8125 59.296875 -104.8125 C 66.453125 -104.8125 73.15625 -103.476562 79.40625 -100.8125 C 85.664062 -98.144531 91.117188 -94.421875 95.765625 -89.640625 C 100.421875 -84.867188 104.097656 -79.226562 106.796875 -72.71875 C 109.492188 -66.21875 110.84375 -59.101562 110.84375 -51.375 Z M 84.921875 -51.375 C 84.921875 -55.269531 84.242188 -58.894531 82.890625 -62.25 C 81.546875 -65.613281 79.710938 -68.519531 77.390625 -70.96875 C 75.066406 -73.425781 72.347656 -75.34375 69.234375 -76.71875 C 66.117188 -78.101562 62.804688 -78.796875 59.296875 -78.796875 C 55.773438 -78.796875 52.457031 -78.023438 49.34375 -76.484375 C 46.238281 -74.953125 43.519531 -72.910156 41.1875 -70.359375 C 38.863281 -67.816406 37.039062 -64.894531 35.71875 -61.59375 C 34.40625 -58.300781 33.75 -54.894531 33.75 -51.375 C 33.75 -47.476562 34.40625 -43.863281 35.71875 -40.53125 C 37.039062 -37.195312 38.863281 -34.304688 41.1875 -31.859375 C 43.519531 -29.410156 46.238281 -27.476562 49.34375 -26.0625 C 52.457031 -24.644531 55.773438 -23.9375 59.296875 -23.9375 C 62.804688 -23.9375 66.117188 -24.644531 69.234375 -26.0625 C 72.347656 -27.476562 75.066406 -29.410156 77.390625 -31.859375 C 79.710938 -34.304688 81.546875 -37.195312 82.890625 -40.53125 C 84.242188 -43.863281 84.921875 -47.476562 84.921875 -51.375 Z M 84.921875 -51.375 "/>
</g>
</g>
</g>
<g fill="#ffffff" fill-opacity="1">
<g transform="translate(983.161073, 222.010059)">
<g>
<path d="M 35.53125 0 L 9.796875 0 L 9.796875 -100.953125 L 16.03125 -100.953125 L 24.515625 -88.984375 C 28.660156 -92.753906 33.367188 -95.660156 38.640625 -97.703125 C 43.921875 -99.742188 49.390625 -100.765625 55.046875 -100.765625 L 77.765625 -100.765625 L 77.765625 -75.125 L 55.046875 -75.125 C 52.347656 -75.125 49.800781 -74.617188 47.40625 -73.609375 C 45.019531 -72.609375 42.945312 -71.226562 41.1875 -69.46875 C 39.425781 -67.707031 38.039062 -65.632812 37.03125 -63.25 C 36.03125 -60.863281 35.53125 -58.316406 35.53125 -55.609375 Z M 35.53125 0 "/>
</g>
</g>
</g>
<g fill="#ffffff" fill-opacity="1">
<g transform="translate(1086.455071, 222.010059)">
<g>
<path d="M 49.953125 -24.703125 C 50.960938 -24.378906 51.96875 -24.171875 52.96875 -24.078125 C 53.976562 -23.984375 54.984375 -23.9375 55.984375 -23.9375 C 58.503906 -23.9375 60.925781 -24.28125 63.25 -24.96875 C 65.570312 -25.664062 67.753906 -26.65625 69.796875 -27.9375 C 71.835938 -29.226562 73.660156 -30.800781 75.265625 -32.65625 C 76.867188 -34.507812 78.171875 -36.566406 79.171875 -38.828125 L 98.03125 -19.890625 C 95.644531 -16.492188 92.894531 -13.441406 89.78125 -10.734375 C 86.675781 -8.035156 83.316406 -5.742188 79.703125 -3.859375 C 76.085938 -1.972656 72.285156 -0.546875 68.296875 0.421875 C 64.304688 1.398438 60.203125 1.890625 55.984375 1.890625 C 48.890625 1.890625 42.210938 0.570312 35.953125 -2.0625 C 29.703125 -4.707031 24.234375 -8.382812 19.546875 -13.09375 C 14.867188 -17.8125 11.179688 -23.421875 8.484375 -29.921875 C 5.785156 -36.429688 4.4375 -43.582031 4.4375 -51.375 C 4.4375 -59.351562 5.785156 -66.640625 8.484375 -73.234375 C 11.179688 -79.835938 14.867188 -85.460938 19.546875 -90.109375 C 24.234375 -94.765625 29.703125 -98.378906 35.953125 -100.953125 C 42.210938 -103.523438 48.890625 -104.8125 55.984375 -104.8125 C 60.203125 -104.8125 64.320312 -104.304688 68.34375 -103.296875 C 72.363281 -102.296875 76.179688 -100.851562 79.796875 -98.96875 C 83.410156 -97.082031 86.785156 -94.773438 89.921875 -92.046875 C 93.066406 -89.316406 95.832031 -86.253906 98.21875 -82.859375 Z M 63.15625 -77.765625 C 61.957031 -78.203125 60.773438 -78.484375 59.609375 -78.609375 C 58.453125 -78.734375 57.242188 -78.796875 55.984375 -78.796875 C 52.472656 -78.796875 49.160156 -78.148438 46.046875 -76.859375 C 42.929688 -75.578125 40.226562 -73.742188 37.9375 -71.359375 C 35.644531 -68.972656 33.835938 -66.097656 32.515625 -62.734375 C 31.203125 -59.367188 30.546875 -55.582031 30.546875 -51.375 C 30.546875 -50.425781 30.59375 -49.351562 30.6875 -48.15625 C 30.78125 -46.96875 30.9375 -45.757812 31.15625 -44.53125 C 31.375 -43.3125 31.640625 -42.132812 31.953125 -41 C 32.265625 -39.875 32.675781 -38.867188 33.1875 -37.984375 Z M 63.15625 -77.765625 "/></g></g></g><g fill="#cd74cc" fill-opacity="1"><g transform="translate(8.74294, 379.965861)"><g>
<path d="M 33.660156 0 C 41.296875 0 48.03125 -2.714844 52.953125 -7.523438 C 57.875 -12.332031 60.703125 -19.007812 60.703125 -26.644531 L 60.703125 -47.578125 C 60.703125 -55.214844 57.875 -62.34375 52.953125 -67.09375 C 48.03125 -71.90625 41.296875 -74.621094 33.660156 -74.621094 L 12.503906 -74.621094 C 9.789062 -74.621094 7.523438 -72.414062 7.523438 -69.699219 L 7.523438 -4.921875 C 7.523438 -2.207031 9.789062 0 12.503906 0 Z M 17.539062 -9.957031 L 17.539062 -64.550781 L 33.660156 -64.550781 C 38.640625 -64.550781 42.9375 -62.964844 45.9375 -60.023438 C 48.878906 -57.082031 50.691406 -52.554688 50.691406 -47.632812 L 50.691406 -26.589844 C 50.691406 -21.667969 48.9375 -17.539062 45.9375 -14.539062 C 42.9375 -11.597656 38.640625 -9.957031 33.660156 -9.957031 Z M 17.539062 -9.957031 "/></g></g></g><g fill="#cd74cc" fill-opacity="1"><g transform="translate(74.593254, 379.965861)"><g><path d="M 30.210938 0.679688 C 34.679688 0.679688 38.867188 0 41.863281 -1.300781 C 45.203125 -2.714844 46.84375 -4.527344 46.84375 -6.84375 C 46.84375 -8.203125 46.277344 -9.5625 45.371094 -10.523438 C 44.351562 -11.539062 43.222656 -12.050781 41.921875 -12.050781 C 40.957031 -12.050781 39.996094 -11.765625 38.921875 -11.144531 C 36.261719 -9.5625 34 -8.9375 30.210938 -8.9375 C 26.191406 -8.9375 22.460938 -10.296875 19.460938 -12.785156 C 16.519531 -15.273438 14.425781 -18.554688 13.578125 -22.402344 L 53.066406 -22.402344 C 55.949219 -22.402344 57.929688 -24.441406 57.929688 -27.15625 C 57.875 -34.566406 54.761719 -41.523438 49.726562 -46.558594 C 44.578125 -51.59375 37.621094 -54.59375 30.210938 -54.59375 C 22.742188 -54.59375 15.671875 -51.539062 10.636719 -46.503906 C 5.488281 -41.46875 2.488281 -34.453125 2.488281 -26.929688 C 2.488281 -19.460938 5.488281 -12.445312 10.636719 -7.410156 C 15.671875 -2.375 22.742188 0.679688 30.210938 0.679688 Z M 13.292969 -30.777344 C 13.972656 -34.679688 16.011719 -38.355469 19.007812 -40.902344 C 22.007812 -43.5625 26.023438 -45.03125 30.378906 -45.03125 C 34.679688 -45.03125 38.695312 -43.503906 41.808594 -40.957031 C 44.917969 -38.414062 47.011719 -34.792969 47.691406 -30.777344 Z M 13.292969 -30.777344 "/></g></g></g><g fill="#cd74cc" fill-opacity="1"><g transform="translate(135.012615, 379.965861)"><g><path d="M 31.171875 0 C 35.699219 0 39.769531 -1.753906 42.710938 -4.867188 C 45.65625 -7.808594 47.296875 -11.878906 47.296875 -16.351562 C 47.296875 -20.648438 45.65625 -24.890625 42.769531 -27.890625 C 39.882812 -31.003906 35.753906 -32.8125 31.285156 -32.8125 L 19.914062 -32.8125 C 18.386719 -32.8125 17.027344 -33.378906 15.839844 -34.507812 C 14.652344 -35.585938 14.085938 -36.941406 14.085938 -38.695312 C 14.085938 -40.222656 14.652344 -41.636719 15.785156 -42.824219 C 16.972656 -44.015625 18.328125 -44.578125 19.914062 -44.578125 L 39.769531 -44.578125 C 41.070312 -44.578125 42.148438 -45.089844 43.109375 -46.105469 C 44.015625 -47.070312 44.464844 -48.3125 44.464844 -49.726562 C 44.464844 -52.726562 42.375 -54.59375 39.488281 -54.59375 L 19.855469 -54.59375 C 15.558594 -54.59375 11.597656 -52.953125 8.710938 -50.066406 C 5.828125 -47.183594 4.074219 -43.277344 4.074219 -39.035156 C 4.074219 -34.734375 5.714844 -30.605469 8.597656 -27.664062 C 11.539062 -24.550781 15.5 -22.742188 19.855469 -22.742188 L 30.378906 -22.742188 C 32.191406 -22.6875 33.773438 -22.121094 35.1875 -21.160156 C 36.601562 -20.082031 37.339844 -18.554688 37.339844 -16.574219 C 37.339844 -14.539062 36.601562 -12.898438 35.074219 -11.652344 C 33.71875 -10.523438 31.964844 -9.957031 30.324219 -9.957031 L 7.695312 -9.957031 C 4.976562 -9.957031 3.113281 -8.035156 3.113281 -5.089844 C 3.113281 -2.09375 5.035156 0 7.695312 0 Z M 31.171875 0 "/></g></g></g><g fill="#cd74cc" fill-opacity="1"><g transform="translate(184.909502, 379.965861)"><g><path d="M 10.863281 -61.269531 C 12.332031 -61.269531 13.691406 -61.835938 14.878906 -62.964844 C 16.011719 -64.039062 16.574219 -65.34375 16.574219 -66.925781 C 16.574219 -68.566406 16.011719 -69.867188 14.878906 -70.941406 C 13.691406 -72.015625 12.390625 -72.582031 10.863281 -72.582031 C 9.277344 -72.582031 7.921875 -72.015625 6.84375 -70.941406 C 5.714844 -69.8125 5.148438 -68.453125 5.148438 -66.925781 C 5.148438 -65.398438 5.714844 -64.097656 6.84375 -62.964844 C 7.976562 -61.835938 9.335938 -61.269531 10.863281 -61.269531 Z M 10.863281 0.394531 C 13.578125 0.394531 15.785156 -1.808594 15.785156 -4.582031 L 15.785156 -49.558594 C 15.785156 -52.332031 13.632812 -54.59375 10.917969 -54.59375 C 9.503906 -54.59375 8.257812 -54.082031 7.296875 -53.121094 C 6.28125 -52.160156 5.769531 -50.972656 5.769531 -49.558594 L 5.769531 -4.582031 C 5.769531 -1.808594 8.089844 0.394531 10.863281 0.394531 Z M 10.863281 0.394531 "/></g></g></g><g fill="#cd74cc" fill-opacity="1"><g transform="translate(206.576761, 379.965861)"><g>
<path d="M 17.59375 24.722656 C 18.78125 24.722656 19.742188 24.328125 20.59375 23.535156 C 22.800781 21.894531 25.457031 21.101562 28.625 21.101562 C 29.925781 21.101562 31.453125 21.214844 33.152344 21.382812 C 34.679688 21.609375 36.148438 21.722656 37.566406 21.722656 C 42.769531 21.722656 47.691406 19.96875 51.3125 16.574219 C 55.160156 13.011719 57.363281 7.921875 57.363281 1.585938 C 57.363281 -3.902344 55.894531 -8.257812 52.953125 -11.429688 C 56.121094 -16.238281 57.703125 -21.382812 57.703125 -26.929688 C 57.703125 -34.453125 54.707031 -41.355469 49.671875 -46.503906 C 44.636719 -51.539062 37.621094 -54.59375 30.097656 -54.59375 C 22.628906 -54.59375 15.785156 -51.652344 10.636719 -46.503906 C 5.488281 -41.355469 2.488281 -34.394531 2.488281 -26.929688 C 2.488281 -19.460938 5.488281 -12.445312 10.636719 -7.410156 C 15.785156 -2.261719 22.628906 0.679688 30.097656 0.679688 C 35.867188 0.679688 41.070312 -0.960938 45.710938 -4.1875 L 46.332031 -3.226562 C 46.617188 -2.828125 46.785156 -2.433594 46.957031 -2.035156 C 47.351562 -1.019531 47.519531 0.226562 47.519531 1.695312 C 47.519531 8.429688 43.050781 11.765625 34.113281 11.765625 C 32.867188 11.765625 31.964844 11.765625 31.398438 11.710938 L 28.796875 11.710938 C 25.796875 11.710938 23.988281 11.824219 21.78125 12.332031 C 19.007812 13.070312 16.859375 13.972656 15.21875 15.046875 C 13.292969 16.351562 12.332031 17.878906 12.332031 19.628906 C 12.332031 20.933594 13.011719 22.289062 13.972656 23.195312 C 14.992188 24.214844 16.179688 24.722656 17.59375 24.722656 Z M 30.097656 -9.335938 C 25.289062 -9.335938 20.875 -11.203125 17.652344 -14.539062 C 14.425781 -17.765625 12.503906 -22.175781 12.503906 -26.929688 C 12.503906 -31.679688 14.425781 -36.09375 17.652344 -39.316406 C 20.875 -42.542969 25.289062 -44.464844 30.097656 -44.464844 C 35.019531 -44.464844 39.429688 -42.542969 42.65625 -39.316406 C 45.878906 -36.09375 47.746094 -31.679688 47.746094 -26.929688 C 47.746094 -22.175781 45.878906 -17.765625 42.65625 -14.539062 C 39.429688 -11.203125 35.019531 -9.335938 30.097656 -9.335938 Z M 30.097656 -9.335938 "/></g></g></g><g fill="#cd74cc" fill-opacity="1"><g transform="translate(266.939566, 379.965861)"><g>
<path d="M 9.050781 0 C 11.824219 0 13.917969 -2.035156 13.917969 -4.921875 L 13.917969 -27.945312 C 13.917969 -32.472656 15.558594 -36.714844 18.5 -39.714844 C 21.441406 -42.824219 25.402344 -44.523438 29.925781 -44.523438 C 34.394531 -44.523438 38.46875 -42.710938 41.46875 -39.601562 C 44.410156 -36.601562 46.105469 -32.359375 46.164062 -27.832031 L 46.164062 -4.921875 C 46.164062 -2.035156 48.425781 0 51.199219 0 C 53.972656 0 56.121094 -2.035156 56.121094 -4.921875 L 56.121094 -27.945312 C 56.121094 -35.1875 53.347656 -41.863281 48.597656 -46.785156 C 43.675781 -51.707031 37.167969 -54.59375 29.925781 -54.59375 C 22.742188 -54.59375 16.238281 -51.707031 11.429688 -46.785156 C 6.675781 -41.863281 3.902344 -35.1875 3.902344 -27.945312 L 3.902344 -4.921875 C 3.902344 -3.507812 4.414062 -2.375 5.488281 -1.414062 C 6.449219 -0.453125 7.636719 0 9.050781 0 Z M 9.050781 0 "/></g></g></g><g fill="#cd74cc" fill-opacity="1"><g transform="translate(328.490376, 379.965861)"><g>
<path d="M 12.050781 1.300781 C 13.691406 1.300781 15.160156 0.679688 16.351562 -0.507812 C 17.480469 -1.640625 18.101562 -3.167969 18.101562 -4.753906 C 18.101562 -6.335938 17.425781 -7.976562 16.351562 -9.109375 C 15.160156 -10.296875 13.691406 -10.917969 12.050781 -10.917969 C 10.410156 -10.917969 8.9375 -10.296875 7.75 -9.109375 C 6.617188 -7.976562 5.941406 -6.394531 5.941406 -4.753906 C 5.941406 -3.113281 6.617188 -1.585938 7.75 -0.507812 C 8.9375 0.679688 10.410156 1.300781 12.050781 1.300781 Z M 12.050781 1.300781 "/></g></g></g><g fill="#cd74cc" fill-opacity="1"><g transform="translate(354.117705, 379.965861)"><g/></g></g><g fill="#ffbd59" fill-opacity="1"><g transform="translate(380.176643, 379.965861)"><g>
<path d="M 33.660156 0 C 41.296875 0 48.03125 -2.714844 52.953125 -7.523438 C 57.875 -12.332031 60.703125 -19.007812 60.703125 -26.644531 L 60.703125 -47.578125 C 60.703125 -55.214844 57.875 -62.34375 52.953125 -67.09375 C 48.03125 -71.90625 41.296875 -74.621094 33.660156 -74.621094 L 12.503906 -74.621094 C 9.789062 -74.621094 7.523438 -72.414062 7.523438 -69.699219 L 7.523438 -4.921875 C 7.523438 -2.207031 9.789062 0 12.503906 0 Z M 17.539062 -9.957031 L 17.539062 -64.550781 L 33.660156 -64.550781 C 38.640625 -64.550781 42.9375 -62.964844 45.9375 -60.023438 C 48.878906 -57.082031 50.691406 -52.554688 50.691406 -47.632812 L 50.691406 -26.589844 C 50.691406 -21.667969 48.9375 -17.539062 45.9375 -14.539062 C 42.9375 -11.597656 38.640625 -9.957031 33.660156 -9.957031 Z M 17.539062 -9.957031 "/></g></g></g><g fill="#ffbd59" fill-opacity="1"><g transform="translate(446.026957, 379.965861)"><g>
<path d="M 30.210938 0.679688 C 34.679688 0.679688 38.867188 0 41.863281 -1.300781 C 45.203125 -2.714844 46.84375 -4.527344 46.84375 -6.84375 C 46.84375 -8.203125 46.277344 -9.5625 45.371094 -10.523438 C 44.351562 -11.539062 43.222656 -12.050781 41.921875 -12.050781 C 40.957031 -12.050781 39.996094 -11.765625 38.921875 -11.144531 C 36.261719 -9.5625 34 -8.9375 30.210938 -8.9375 C 26.191406 -8.9375 22.460938 -10.296875 19.460938 -12.785156 C 16.519531 -15.273438 14.425781 -18.554688 13.578125 -22.402344 L 53.066406 -22.402344 C 55.949219 -22.402344 57.929688 -24.441406 57.929688 -27.15625 C 57.875 -34.566406 54.761719 -41.523438 49.726562 -46.558594 C 44.578125 -51.59375 37.621094 -54.59375 30.210938 -54.59375 C 22.742188 -54.59375 15.671875 -51.539062 10.636719 -46.503906 C 5.488281 -41.46875 2.488281 -34.453125 2.488281 -26.929688 C 2.488281 -19.460938 5.488281 -12.445312 10.636719 -7.410156 C 15.671875 -2.375 22.742188 0.679688 30.210938 0.679688 Z M 13.292969 -30.777344 C 13.972656 -34.679688 16.011719 -38.355469 19.007812 -40.902344 C 22.007812 -43.5625 26.023438 -45.03125 30.378906 -45.03125 C 34.679688 -45.03125 38.695312 -43.503906 41.808594 -40.957031 C 44.917969 -38.414062 47.011719 -34.792969 47.691406 -30.777344 Z M 13.292969 -30.777344 "/></g></g></g><g fill="#ffbd59" fill-opacity="1"><g transform="translate(506.446317, 379.965861)"><g>
<path d="M 26.417969 0.28125 C 28.398438 0.28125 29.925781 -0.90625 30.890625 -2.773438 L 49.671875 -47.183594 C 50.011719 -48.03125 50.179688 -48.710938 50.125 -49.273438 C 50.125 -50.578125 49.613281 -51.765625 48.652344 -52.726562 C 47.632812 -53.746094 46.445312 -54.253906 45.144531 -54.253906 C 43.277344 -54.253906 41.410156 -53.066406 40.5625 -51.253906 L 26.304688 -16.632812 L 11.9375 -51.253906 C 11.089844 -53.234375 9.335938 -54.308594 7.46875 -54.308594 C 4.582031 -54.308594 2.433594 -51.992188 2.433594 -49.332031 C 2.433594 -48.597656 2.601562 -47.859375 2.886719 -47.183594 L 21.667969 -2.773438 C 22.402344 -0.960938 23.988281 0.28125 26.417969 0.28125 Z M 26.417969 0.28125 "/></g></g></g><g fill="#ffbd59" fill-opacity="1"><g transform="translate(559.002126, 379.965861)"><g><path d="M 30.210938 0.679688 C 34.679688 0.679688 38.867188 0 41.863281 -1.300781 C 45.203125 -2.714844 46.84375 -4.527344 46.84375 -6.84375 C 46.84375 -8.203125 46.277344 -9.5625 45.371094 -10.523438 C 44.351562 -11.539062 43.222656 -12.050781 41.921875 -12.050781 C 40.957031 -12.050781 39.996094 -11.765625 38.921875 -11.144531 C 36.261719 -9.5625 34 -8.9375 30.210938 -8.9375 C 26.191406 -8.9375 22.460938 -10.296875 19.460938 -12.785156 C 16.519531 -15.273438 14.425781 -18.554688 13.578125 -22.402344 L 53.066406 -22.402344 C 55.949219 -22.402344 57.929688 -24.441406 57.929688 -27.15625 C 57.875 -34.566406 54.761719 -41.523438 49.726562 -46.558594 C 44.578125 -51.59375 37.621094 -54.59375 30.210938 -54.59375 C 22.742188 -54.59375 15.671875 -51.539062 10.636719 -46.503906 C 5.488281 -41.46875 2.488281 -34.453125 2.488281 -26.929688 C 2.488281 -19.460938 5.488281 -12.445312 10.636719 -7.410156 C 15.671875 -2.375 22.742188 0.679688 30.210938 0.679688 Z M 13.292969 -30.777344 C 13.972656 -34.679688 16.011719 -38.355469 19.007812 -40.902344 C 22.007812 -43.5625 26.023438 -45.03125 30.378906 -45.03125 C 34.679688 -45.03125 38.695312 -43.503906 41.808594 -40.957031 C 44.917969 -38.414062 47.011719 -34.792969 47.691406 -30.777344 Z M 13.292969 -30.777344 "/></g></g></g><g fill="#ffbd59" fill-opacity="1"><g transform="translate(619.421486, 379.965861)"><g>
<path d="M 25.742188 0.0546875 C 28.625 0.0546875 30.664062 -1.980469 30.664062 -4.867188 C 30.664062 -7.636719 28.625 -9.789062 25.742188 -9.789062 L 25.402344 -9.789062 C 20.140625 -9.84375 16.914062 -13.070312 16.914062 -18.894531 L 16.914062 -69.132812 C 16.914062 -70.546875 16.40625 -71.734375 15.386719 -72.753906 C 14.371094 -73.714844 13.179688 -74.167969 11.765625 -74.167969 C 9.050781 -74.167969 6.902344 -72.015625 6.902344 -69.132812 L 6.902344 -18.894531 C 6.902344 -13.292969 8.882812 -8.597656 12.332031 -5.203125 C 15.726562 -1.808594 20.367188 0.0546875 25.742188 0.0546875 Z M 25.742188 0.0546875 "/></g></g></g><g fill="#ffbd59" fill-opacity="1"><g transform="translate(651.32834, 379.965861)"><g>
<path d="M 30.097656 0.679688 C 37.621094 0.679688 44.636719 -2.375 49.671875 -7.410156 C 54.707031 -12.445312 57.703125 -19.40625 57.703125 -26.929688 C 57.703125 -34.453125 54.707031 -41.355469 49.671875 -46.503906 C 44.636719 -51.539062 37.621094 -54.59375 30.097656 -54.59375 C 22.628906 -54.59375 15.785156 -51.652344 10.636719 -46.503906 C 5.488281 -41.355469 2.488281 -34.394531 2.488281 -26.929688 C 2.488281 -19.460938 5.488281 -12.445312 10.636719 -7.410156 C 15.785156 -2.261719 22.628906 0.679688 30.097656 0.679688 Z M 30.097656 -9.335938 C 25.289062 -9.335938 20.875 -11.203125 17.652344 -14.539062 C 14.425781 -17.765625 12.503906 -22.175781 12.503906 -26.929688 C 12.503906 -31.679688 14.425781 -36.09375 17.652344 -39.316406 C 20.875 -42.542969 25.289062 -44.464844 30.097656 -44.464844 C 35.019531 -44.464844 39.375 -42.542969 42.597656 -39.316406 C 45.824219 -36.09375 47.691406 -31.679688 47.691406 -26.929688 C 47.691406 -22.175781 45.824219 -17.765625 42.597656 -14.539062 C 39.375 -11.203125 35.019531 -9.335938 30.097656 -9.335938 Z M 30.097656 -9.335938 "/></g></g></g><g fill="#ffbd59" fill-opacity="1"><g transform="translate(711.521412, 379.965861)"><g>
<path d="M 10.125 19.628906 C 13.011719 19.628906 14.992188 17.367188 14.992188 14.425781 L 14.992188 -5.714844 C 19.914062 -1.585938 25.910156 0.679688 32.699219 0.679688 C 40.167969 0.679688 47.183594 -2.375 52.21875 -7.410156 C 57.25 -12.445312 60.25 -19.40625 60.25 -26.929688 C 60.25 -34.453125 57.25 -41.355469 52.21875 -46.503906 C 47.183594 -51.539062 40.167969 -54.59375 32.699219 -54.59375 C 25.230469 -54.59375 18.214844 -51.539062 13.179688 -46.503906 C 8.035156 -41.355469 5.035156 -34.394531 5.035156 -26.929688 L 5.035156 14.425781 C 5.035156 17.367188 7.355469 19.628906 10.125 19.628906 Z M 32.699219 -9.335938 C 27.890625 -9.335938 23.421875 -11.203125 20.195312 -14.539062 C 16.972656 -17.765625 15.046875 -22.175781 15.046875 -26.929688 C 15.046875 -31.679688 16.972656 -36.09375 20.195312 -39.316406 C 23.421875 -42.542969 27.890625 -44.464844 32.699219 -44.464844 C 37.507812 -44.464844 41.976562 -42.542969 45.203125 -39.316406 C 48.425781 -36.09375 50.292969 -31.679688 50.292969 -26.929688 C 50.292969 -22.175781 48.425781 -17.765625 45.203125 -14.539062 C 41.976562 -11.203125 37.507812 -9.335938 32.699219 -9.335938 Z M 32.699219 -9.335938 "/></g></g></g><g fill="#ffbd59" fill-opacity="1"><g transform="translate(774.260258, 379.965861)"><g>
<path d="M 12.050781 1.300781 C 13.691406 1.300781 15.160156 0.679688 16.351562 -0.507812 C 17.480469 -1.640625 18.101562 -3.167969 18.101562 -4.753906 C 18.101562 -6.335938 17.425781 -7.976562 16.351562 -9.109375 C 15.160156 -10.296875 13.691406 -10.917969 12.050781 -10.917969 C 10.410156 -10.917969 8.9375 -10.296875 7.75 -9.109375 C 6.617188 -7.976562 5.941406 -6.394531 5.941406 -4.753906 C 5.941406 -3.113281 6.617188 -1.585938 7.75 -0.507812 C 8.9375 0.679688 10.410156 1.300781 12.050781 1.300781 Z M 12.050781 1.300781 "/></g></g></g><g fill="#ffffff" fill-opacity="1"><g transform="translate(799.866575, 379.965861)"><g/></g></g><g fill="#70dd88" fill-opacity="1"><g transform="translate(825.923, 379.965861)"><g><path d="M 33.660156 0 C 41.296875 0 48.03125 -2.714844 52.953125 -7.523438 C 57.875 -12.332031 60.703125 -19.007812 60.703125 -26.644531 L 60.703125 -47.578125 C 60.703125 -55.214844 57.875 -62.34375 52.953125 -67.09375 C 48.03125 -71.90625 41.296875 -74.621094 33.660156 -74.621094 L 12.503906 -74.621094 C 9.789062 -74.621094 7.523438 -72.414062 7.523438 -69.699219 L 7.523438 -4.921875 C 7.523438 -2.207031 9.789062 0 12.503906 0 Z M 17.539062 -9.957031 L 17.539062 -64.550781 L 33.660156 -64.550781 C 38.640625 -64.550781 42.9375 -62.964844 45.9375 -60.023438 C 48.878906 -57.082031 50.691406 -52.554688 50.691406 -47.632812 L 50.691406 -26.589844 C 50.691406 -21.667969 48.9375 -17.539062 45.9375 -14.539062 C 42.9375 -11.597656 38.640625 -9.957031 33.660156 -9.957031 Z M 17.539062 -9.957031 "/></g></g></g><g fill="#70dd88" fill-opacity="1"><g transform="translate(891.773314, 379.965861)"><g>
<path d="M 30.210938 0.679688 C 34.679688 0.679688 38.867188 0 41.863281 -1.300781 C 45.203125 -2.714844 46.84375 -4.527344 46.84375 -6.84375 C 46.84375 -8.203125 46.277344 -9.5625 45.371094 -10.523438 C 44.351562 -11.539062 43.222656 -12.050781 41.921875 -12.050781 C 40.957031 -12.050781 39.996094 -11.765625 38.921875 -11.144531 C 36.261719 -9.5625 34 -8.9375 30.210938 -8.9375 C 26.191406 -8.9375 22.460938 -10.296875 19.460938 -12.785156 C 16.519531 -15.273438 14.425781 -18.554688 13.578125 -22.402344 L 53.066406 -22.402344 C 55.949219 -22.402344 57.929688 -24.441406 57.929688 -27.15625 C 57.875 -34.566406 54.761719 -41.523438 49.726562 -46.558594 C 44.578125 -51.59375 37.621094 -54.59375 30.210938 -54.59375 C 22.742188 -54.59375 15.671875 -51.539062 10.636719 -46.503906 C 5.488281 -41.46875 2.488281 -34.453125 2.488281 -26.929688 C 2.488281 -19.460938 5.488281 -12.445312 10.636719 -7.410156 C 15.671875 -2.375 22.742188 0.679688 30.210938 0.679688 Z M 13.292969 -30.777344 C 13.972656 -34.679688 16.011719 -38.355469 19.007812 -40.902344 C 22.007812 -43.5625 26.023438 -45.03125 30.378906 -45.03125 C 34.679688 -45.03125 38.695312 -43.503906 41.808594 -40.957031 C 44.917969 -38.414062 47.011719 -34.792969 47.691406 -30.777344 Z M 13.292969 -30.777344 "/></g></g></g><g fill="#70dd88" fill-opacity="1"><g transform="translate(952.192675, 379.965861)"><g>
<path d="M 25.742188 0.0546875 C 28.625 0.0546875 30.664062 -1.980469 30.664062 -4.867188 C 30.664062 -7.636719 28.625 -9.789062 25.742188 -9.789062 L 25.402344 -9.789062 C 20.140625 -9.84375 16.914062 -13.070312 16.914062 -18.894531 L 16.914062 -69.132812 C 16.914062 -70.546875 16.40625 -71.734375 15.386719 -72.753906 C 14.371094 -73.714844 13.179688 -74.167969 11.765625 -74.167969 C 9.050781 -74.167969 6.902344 -72.015625 6.902344 -69.132812 L 6.902344 -18.894531 C 6.902344 -13.292969 8.882812 -8.597656 12.332031 -5.203125 C 15.726562 -1.808594 20.367188 0.0546875 25.742188 0.0546875 Z M 25.742188 0.0546875 "/></g></g></g><g fill="#70dd88" fill-opacity="1"><g transform="translate(984.099528, 379.965861)"><g><path d="M 10.863281 -61.269531 C 12.332031 -61.269531 13.691406 -61.835938 14.878906 -62.964844 C 16.011719 -64.039062 16.574219 -65.34375 16.574219 -66.925781 C 16.574219 -68.566406 16.011719 -69.867188 14.878906 -70.941406 C 13.691406 -72.015625 12.390625 -72.582031 10.863281 -72.582031 C 9.277344 -72.582031 7.921875 -72.015625 6.84375 -70.941406 C 5.714844 -69.8125 5.148438 -68.453125 5.148438 -66.925781 C 5.148438 -65.398438 5.714844 -64.097656 6.84375 -62.964844 C 7.976562 -61.835938 9.335938 -61.269531 10.863281 -61.269531 Z M 10.863281 0.394531 C 13.578125 0.394531 15.785156 -1.808594 15.785156 -4.582031 L 15.785156 -49.558594 C 15.785156 -52.332031 13.632812 -54.59375 10.917969 -54.59375 C 9.503906 -54.59375 8.257812 -54.082031 7.296875 -53.121094 C 6.28125 -52.160156 5.769531 -50.972656 5.769531 -49.558594 L 5.769531 -4.582031 C 5.769531 -1.808594 8.089844 0.394531 10.863281 0.394531 Z M 10.863281 0.394531 "/></g></g></g><g fill="#70dd88" fill-opacity="1"><g transform="translate(1005.766787, 379.965861)"><g>
<path d="M 26.417969 0.28125 C 28.398438 0.28125 29.925781 -0.90625 30.890625 -2.773438 L 49.671875 -47.183594 C 50.011719 -48.03125 50.179688 -48.710938 50.125 -49.273438 C 50.125 -50.578125 49.613281 -51.765625 48.652344 -52.726562 C 47.632812 -53.746094 46.445312 -54.253906 45.144531 -54.253906 C 43.277344 -54.253906 41.410156 -53.066406 40.5625 -51.253906 L 26.304688 -16.632812 L 11.9375 -51.253906 C 11.089844 -53.234375 9.335938 -54.308594 7.46875 -54.308594 C 4.582031 -54.308594 2.433594 -51.992188 2.433594 -49.332031 C 2.433594 -48.597656 2.601562 -47.859375 2.886719 -47.183594 L 21.667969 -2.773438 C 22.402344 -0.960938 23.988281 0.28125 26.417969 0.28125 Z M 26.417969 0.28125 "/></g></g></g><g fill="#70dd88" fill-opacity="1"><g transform="translate(1058.322596, 379.965861)"><g>
<path d="M 30.210938 0.679688 C 34.679688 0.679688 38.867188 0 41.863281 -1.300781 C 45.203125 -2.714844 46.84375 -4.527344 46.84375 -6.84375 C 46.84375 -8.203125 46.277344 -9.5625 45.371094 -10.523438 C 44.351562 -11.539062 43.222656 -12.050781 41.921875 -12.050781 C 40.957031 -12.050781 39.996094 -11.765625 38.921875 -11.144531 C 36.261719 -9.5625 34 -8.9375 30.210938 -8.9375 C 26.191406 -8.9375 22.460938 -10.296875 19.460938 -12.785156 C 16.519531 -15.273438 14.425781 -18.554688 13.578125 -22.402344 L 53.066406 -22.402344 C 55.949219 -22.402344 57.929688 -24.441406 57.929688 -27.15625 C 57.875 -34.566406 54.761719 -41.523438 49.726562 -46.558594 C 44.578125 -51.59375 37.621094 -54.59375 30.210938 -54.59375 C 22.742188 -54.59375 15.671875 -51.539062 10.636719 -46.503906 C 5.488281 -41.46875 2.488281 -34.453125 2.488281 -26.929688 C 2.488281 -19.460938 5.488281 -12.445312 10.636719 -7.410156 C 15.671875 -2.375 22.742188 0.679688 30.210938 0.679688 Z M 13.292969 -30.777344 C 13.972656 -34.679688 16.011719 -38.355469 19.007812 -40.902344 C 22.007812 -43.5625 26.023438 -45.03125 30.378906 -45.03125 C 34.679688 -45.03125 38.695312 -43.503906 41.808594 -40.957031 C 44.917969 -38.414062 47.011719 -34.792969 47.691406 -30.777344 Z M 13.292969 -30.777344 "/></g></g></g><g fill="#70dd88" fill-opacity="1"><g transform="translate(1118.741956, 379.965861)"><g>
<path d="M 10.183594 0 C 12.898438 0 14.992188 -2.09375 14.992188 -4.976562 L 14.992188 -25.683594 C 14.992188 -30.832031 17.027344 -35.527344 20.59375 -39.09375 C 24.042969 -42.542969 28.738281 -44.636719 33.773438 -44.636719 L 34.058594 -44.636719 C 37 -44.636719 39.261719 -46.730469 39.261719 -49.613281 C 39.261719 -52.554688 37.394531 -54.59375 34.058594 -54.59375 L 33.773438 -54.59375 C 26.023438 -54.59375 18.839844 -51.480469 13.464844 -46.105469 C 8.203125 -40.734375 5.035156 -33.433594 5.035156 -25.683594 L 5.035156 -4.976562 C 5.035156 -3.5625 5.542969 -2.375 6.617188 -1.414062 C 7.582031 -0.453125 8.769531 0 10.183594 0 Z M 10.183594 0 "/></g></g></g><g fill="#70dd88" fill-opacity="1"><g transform="translate(1159.24782, 379.965861)"><g>
<path d="M 12.050781 1.300781 C 13.691406 1.300781 15.160156 0.679688 16.351562 -0.507812 C 17.480469 -1.640625 18.101562 -3.167969 18.101562 -4.753906 C 18.101562 -6.335938 17.425781 -7.976562 16.351562 -9.109375 C 15.160156 -10.296875 13.691406 -10.917969 12.050781 -10.917969 C 10.410156 -10.917969 8.9375 -10.296875 7.75 -9.109375 C 6.617188 -7.976562 5.941406 -6.394531 5.941406 -4.753906 C 5.941406 -3.113281 6.617188 -1.585938 7.75 -0.507812 C 8.9375 0.679688 10.410156 1.300781 12.050781 1.300781 Z M 12.050781 1.300781 "/></g></g></g><g fill="#ffffff" fill-opacity="1"><g transform="translate(1184.847005, 379.965861)"><g/></g></g><g clip-path="url(#id1)">
<path fill="#cd74cc" d="M 55.257812 65.988281 L 156.140625 65.988281 C 166.085938 65.988281 174.148438 74.074219 174.148438 84.046875 C 174.148438 94.019531 166.085938 102.101562 156.140625 102.101562 L 55.257812 102.101562 C 45.3125 102.101562 37.25 94.019531 37.25 84.046875 C 37.25 74.074219 45.3125 65.988281 55.257812 65.988281 " fill-opacity="1" fill-rule="nonzero"/></g><g clip-path="url(#id2)"><path fill="#ffbd59" d="M 34.914062 126.171875 L 176.183594 126.171875 C 186.109375 126.171875 194.152344 134.253906 194.152344 144.226562 C 194.152344 154.199219 186.109375 162.285156 176.183594 162.285156 L 34.914062 162.285156 C 24.988281 162.285156 16.941406 154.199219 16.941406 144.226562 C 16.941406 134.253906 24.988281 126.171875 34.914062 126.171875 " fill-opacity="1" fill-rule="nonzero"/></g><g clip-path="url(#id3)"><path fill="#70dd88" d="M 55.257812 186.351562 L 156.140625 186.351562 C 166.085938 186.351562 174.148438 194.4375 174.148438 204.410156 C 174.148438 214.382812 166.085938 222.464844 156.140625 222.464844 L 55.257812 222.464844 C 45.3125 222.464844 37.25 214.382812 37.25 204.410156 C 37.25 194.4375 45.3125 186.351562 55.257812 186.351562 " fill-opacity="1" fill-rule="nonzero"/></g></svg>
